<svg height="480pt" viewBox="-4 0 480 480" width="480pt" xmlns="http://www.w3.org/2000/svg" xmlns:xlink="http://www.w3.org/1999/xlink"><linearGradient id="a" gradientUnits="userSpaceOnUse" x1="35.04" x2="440.96" y1="388.96" y2="-16.96"><stop offset="0" stop-color="#41dfd0"/><stop offset="1" stop-color="#ee83ef"/></linearGradient><path d="m88 184h-16v-24h16zm32 16v-24h-16v24zm32 16v-32h-16v32zm32-40h-16v24h16zm32-24h-16v24h16zm32-24h-16v24h16zm32 16h-16v24h16zm32 16h-16v24h16zm32-24h-16v24h16zm32-16h-16v24h16zm16 16h16v-32h-16zm-392-112c0-13.253906 10.746094-24 24-24h424c13.253906 0 24 10.746094 24 24s-10.746094 24-24 24h-8v280h8c13.253906 0 24 10.746094 24 24s-10.746094 24-24 24h-113.375l24.136719 72.40625c4.1875 12.582031-2.617188 26.179688-15.203125 30.363281-2.4375.808594-4.988282 1.222657-7.558594 1.230469-10.328125-.011719-19.488281-6.632812-22.742188-16.433594l-29.257812-87.566406h-20v80c0 13.253906-10.746094 24-24 24s-24-10.746094-24-24v-80h-20l-29.230469 87.585938c-3.265625 9.800781-12.4375 16.414062-22.769531 16.414062-2.589844-.003906-5.160156-.425781-7.617188-1.246094-12.578124-4.183594-19.382812-17.773437-15.199218-30.355468l24.183594-72.398438h-113.367188c-13.253906 0-24-10.746094-24-24s10.746094-24 24-24h8v-280h-16c-13.253906 0-24-10.746094-24-24zm179.105469 352h-16.875l-25.816407 77.472656c-1.394531 4.195313.875 8.730469 5.074219 10.128906 4.195313 1.394532 8.730469-.875 10.128907-5.074218zm68.894531 0h-16v80c0 4.417969 3.582031 8 8 8s8-3.582031 8-8zm69.769531 0h-16.875l27.511719 82.519531c1.394531 4.199219 5.929688 6.46875 10.125 5.078125 4.199219-1.394531 6.472656-5.929687 5.078125-10.125zm114.230469-32h-400c-4.417969 0-8 3.582031-8 8s3.582031 8 8 8h416c4.417969 0 8-3.582031 8-8s-3.582031-8-8-8zm-8-16v-280h-368v280zm-408-304c0 4.417969 3.582031 8 8 8h424c4.417969 0 8-3.582031 8-8s-3.582031-8-8-8h-424c-4.417969 0-8 3.582031-8 8zm392 160v112c0 4.417969-3.582031 8-8 8h-320c-4.417969 0-8-3.582031-8-8v-56c0-4.417969 3.582031-8 8-8h32c4.417969 0 8 3.582031 8 8v48h24v-32c0-4.417969 3.582031-8 8-8h32c4.417969 0 8 3.582031 8 8v32h24v-72c0-4.417969 3.582031-8 8-8h32c4.417969 0 8 3.582031 8 8v72h24v-64c0-4.417969 3.582031-8 8-8h32c4.417969 0 8 3.582031 8 8v64h24v-104c0-4.417969 3.582031-8 8-8h32c4.417969 0 8 3.582031 8 8zm-304 64h-16v40h16zm72 16h-16v24h16zm72-40h-16v64h16zm72 8h-16v56h16zm72-40h-16v96h16zm-232-128h-80v16h80zm-32 32h-48v16h48zm0 0" fill="url(#a)"/></svg>