<svg height="474pt" viewBox="0 -30 474.744 474" width="474pt" xmlns="http://www.w3.org/2000/svg" xmlns:xlink="http://www.w3.org/1999/xlink"><linearGradient id="a" gradientUnits="userSpaceOnUse" x1="132.504" x2="336.152" y1="338.204" y2="134.556"><stop offset="0" stop-color="#41dfd0"/><stop offset="1" stop-color="#ee83ef"/></linearGradient><path d="m33.503906 46.867188 11.296875-11.296876 17 16.960938-11.3125 11.3125zm-33.503906 104.167968h20.992188v-16h-20.992188zm61.800781 82.503906-11.3125-11.3125-16.984375 16.976563 11.296875 11.320313zm71.199219 53.496094h16v-24h-16zm98.511719-223.199218 16.96875-16.976563-11.320313-11.289063-16.976562 16.960938zm-82.511719-40.800782v-22.664062h-16v22.664062zm259.6875 296.367188c-16.417969-1.507813-32.441406-5.894532-47.34375-12.949219.199219 7.460937-2.625 14.6875-7.828125 20.039063-5.203125 5.351562-12.347656 8.375-19.8125 8.382812-3.007813 0-5.992187-.484375-8.847656-1.429688l-16.632813-5.546874c-.195312 6.574218-2.886718 12.828124-7.527344 17.488281-4.957031 4.910156-11.652343 7.664062-18.632812 7.664062-.996094.003907-1.992188-.054687-2.984375-.175781l-31.582031-3.925781c-.835938-.113281-1.644532-.363281-2.398438-.738281-.066406 0-.136718 0-.203125 0-16.5625-8.34375-26.210937-26.089844-24.207031-44.527344l2.464844-22.039063-29.832032-18.648437c-.144531-.089844-.214843-.25-.351562-.351563-.390625-.214843-.761719-.460937-1.113281-.738281l-19.640625-19.710938c-48.6875 15.363282-101.328125-6.890624-124.234375-52.519531-22.90625-45.628906-9.304688-101.140625 32.105469-131.007812 41.40625-29.867188 98.371093-25.261719 134.441406 10.871093 19.089844 19.085938 29.976562 44.871094 30.335937 71.863282 15.78125-13.875 39.621094-13.144532 54.519531 1.671875l50.914063 50.898437c.890625.925782 1.539063 2.058594 1.886719 3.296875 13.96875-1.210937 27.757812 3.789063 37.703125 13.671875 23.238281 23.269532 37.601562 53.933594 40.609375 86.679688l1.3125 14.398437c.203125 2.246094-.546875 4.472657-2.070313 6.132813-1.523437 1.664062-3.675781 2.605468-5.929687 2.59375-.242188 0-.480469 0-.71875 0zm-52.734375-106.527344c-8.46875-.007812-16.59375 3.34375-22.59375 9.320312l-.070313.082032c-12.472656 12.492187-12.472656 32.722656 0 45.214844 20.613282 20.59375 47.78125 33.328124 76.800782 36l4.855468.441406-.449218-4.859375c-2.664063-29.015625-15.402344-56.1875-36-76.796875-5.96875-6-14.078125-9.382813-22.542969-9.402344zm-56 76.671875 16.390625-16.398437-11.304688-11.3125-11.3125 11.335937c-9.371093 9.375-24.570312 9.375-33.941406 0l-25.457031-25.457031c-2.914063-2.9375-5.132813-6.492188-6.496094-10.398438l-17.496093 17.472656 76.574218 47.863282zm-.578125-123.886719-33.933594 33.910156 8.480469 8.480469 2.832031 2.824219 33.933594-33.933594zm-53.734375 70.710938 8.488281 8.488281 16.96875-16.976563-8.503906-8.503906c-4.625-4.640625-12.121094-4.6875-16.800781-.101562l-.304688.292968c-4.53125 4.710938-4.464843 12.175782.152344 16.800782zm19.800781 19.800781 5.664063 5.65625c3.160156 3.027344 8.148437 3.027344 11.308593 0l11.3125-11.3125-11.328124-11.3125zm67.886719-56.601563-11.320313-11.277343-33.9375 33.933593 11.3125 11.320313 22.59375-22.582031v-.050782h.039063zm-79.199219-11.359374v.050781l33.941406-33.945313c-9.378906-9.257812-24.472656-9.214844-33.800781.089844-9.332031 9.308594-9.414062 24.398438-.179687 33.804688zm-113.136718 42.824218c15.019531.011719 29.785156-3.84375 42.878906-11.199218l-27.488282-27.464844-40.101562 20.050781c-3.082031 1.535156-6.800781.929687-9.234375-1.507813l-16.96875-16.941406c-3.121094-3.125-3.121094-8.1875 0-11.3125l14.625-14.625v-19.34375c0-4.417968 3.582031-8 8-8h25.945313v-25.917968c0-4.417969 3.582031-8 8-8h19.3125l14.625-14.625c3.121093-3.125 8.1875-3.125 11.308593 0l16.976563 16.96875c2.4375 2.433593 3.042968 6.152343 1.503906 9.230468l-20.054688 40.089844 27.488282 27.476562c19.351562-34.679687 13.074218-78.023437-15.316406-105.789062-28.390626-27.769531-71.863282-33.082031-106.105469-12.964844-34.242188 20.117188-50.765625 60.675782-40.332031 98.996094 10.433593 38.320312 45.238281 64.902344 84.953124 64.878906zm67.609374-31.703125-33.671874-33.664062c-2.433594-2.433594-3.035157-6.152344-1.496094-9.230469l20.054687-40.066406-7.25-7.199219-11.308593 11.3125c-1.5 1.5-3.535157 2.34375-5.65625 2.34375h-14.625v25.863281c0 4.417969-3.582032 8-8 8h-25.945313v14.632813c0 2.121093-.84375 4.15625-2.34375 5.65625l-11.3125 11.3125 7.199219 7.238281 40.152344-20.046875c3.082031-1.539063 6.796874-.9375 9.234374 1.496094l33.671876 33.664062c2.039062-1.703125 4-3.480469 5.925781-5.382812 1.929687-1.90625 3.664062-3.890625 5.371093-5.929688zm-20.320312 36.28125 9.246094 9.277344 36.800781-36.796875 8.472656-8.472656c-.199219-.199219-.617187-.65625-.753906-.800782l-8.445313-8.488281c-9.914062 19.515625-25.773437 35.371094-45.289062 45.28125zm58.117188 94.519531 16.800781-23.496093-24.992188-15.625-1.597656 14.398437c-1.027344 9.355469 2.636719 18.609375 9.789063 24.722656zm44.539062-8-5.402344-1.761718c-.398437-.15625-.789062-.34375-1.160156-.558594-.175781-.097656-.375-.136719-.542969-.242188l-7.046875-4.40625-13.992187 19.609376 18.191406 2.261718c3.09375.335938 6.179687-.738281 8.398437-2.917968 3.226563-3.132813 3.886719-8.066407 1.601563-11.9375zm51.03125-23.359374-14.304688-14.304688-9.464843 9.464844-15.320313 15.308594 27.03125 9.019531c5.179688 1.71875 10.863282-.339844 13.730469-4.980469 2.871094-4.640625 2.179687-10.644531-1.671875-14.507812zm8.328125-36.929688 11.304687-11.320312-11.3125-11.320313-11.3125 11.320313zm45.246094 0-11.3125-11.3125-11.308594 11.3125 11.308594 11.328125zm33.953125 101.808594-22.640625-22.625-11.3125 11.34375 22.632812 22.625zm28.28125 5.65625 11.3125-11.335938-22.625-22.625-11.3125 11.3125zm16.964844-50.90625-22.621094-22.628906-11.320313 11.3125 22.625 22.628906zm-16.964844 84.851562-22.625-22.625-11.320313 11.3125 22.632813 22.621094zm0 0" fill="url(#a)"/></svg>