<svg height="472pt" viewBox="0 -72 472.88622 472" width="472pt" xmlns="http://www.w3.org/2000/svg" xmlns:xlink="http://www.w3.org/1999/xlink"><linearGradient id="a" gradientUnits="userSpaceOnUse" x1="67.315108" x2="405.571108" y1="361.89911" y2="23.64311"><stop offset="0" stop-color="#41dfd0"/><stop offset="1" stop-color="#ee83ef"/></linearGradient><path d="m56.945312 328.441406c24.652344.101563 46.441407-15.988281 53.601563-39.574218l19.800781-64.425782h212.191406l19.816407 64.425782c7.921875 25.734374 33.023437 42.203124 59.78125 39.222656 26.761719-2.976563 47.628906-24.558594 49.699219-51.40625 3.125-40.371094-.730469-80.976563-11.394532-120.039063l-22.628906-82.9375c-5.480469-19.792969-21.355469-35-41.371094-39.625v-9.640625c0-13.253906-10.742187-24-24-24h-32c-13.253906 0-24 10.746094-24 24v8h-160v-8c0-13.253906-10.742187-24-24-24h-32c-13.253906 0-24 10.746094-24 24v9.640625c-20.011718 4.625-35.886718 19.832031-41.367187 39.625l-22.632813 82.9375c-10.660156 39.0625-14.515625 79.667969-11.390625 120.039063 2.371094 29.148437 26.652344 51.632812 55.894531 51.757812zm99.496094-144c0-13.253906 10.746094-24 24-24 13.257813 0 24 10.746094 24 24 0 13.257813-10.742187 24-24 24-13.253906 0-24-10.742187-24-24zm112 0c0-13.253906 10.746094-24 24-24 13.257813 0 24 10.746094 24 24 0 13.257813-10.742187 24-24 24-13.253906 0-24-10.742187-24-24zm64-160c0-4.417968 3.582032-8 8-8h32c4.421875 0 8 3.582032 8 8v8h-48zm-40.933594 24-5.441406 48.882813c-.449218 4.050781-3.867187 7.113281-7.941406 7.117187h-83.363281c-4.074219-.003906-7.496094-3.066406-7.941407-7.117187l-5.441406-48.882813zm-199.066406-24c0-4.417968 3.582032-8 8-8h32c4.421875 0 8 3.582032 8 8v8h-48zm-64.542968 136.410156 22.617187-82.929687c4.769531-17.386719 20.5625-29.449219 38.589844-29.480469h76.175781l5.601562 50.648438c1.351563 12.167968 11.640626 21.367187 23.878907 21.351562h83.363281c12.226562 0 22.496094-9.195312 23.847656-21.351562l5.671875-50.648438h76.175781c18.027344.03125 33.820313 12.09375 38.589844 29.480469l22.617188 82.929687c10.175781 37.292969 13.847656 76.058594 10.855468 114.597657-1.695312 20.832031-19.046874 36.902343-39.945312 36.992187-17.605469.066406-33.171875-11.429687-38.285156-28.277344l-21.5625-70.074218c-1.03125-3.355469-4.132813-5.648438-7.648438-5.648438h-24.207031c5.296875-6.882812 8.179687-15.316406 8.207031-24 0-22.089844-17.90625-40-40-40-22.089844 0-40 17.910156-40 40 .03125 8.683594 2.914063 17.117188 8.210938 24h-48.417969c5.296875-6.882812 8.179687-15.316406 8.207031-24 0-22.089844-17.90625-40-40-40-22.089844 0-40 17.910156-40 40 .03125 8.683594 2.914063 17.117188 8.210938 24h-24.210938c-3.511718 0-6.613281 2.292969-7.644531 5.648438l-21.5625 70.074218c-5.113281 16.847657-20.679687 28.34375-38.289063 28.277344-20.894531-.089844-38.246093-16.160156-39.941406-36.992187-2.980468-38.539063.703125-77.308594 10.894532-114.597657zm340.542968-64.410156c11.046875 0 20-8.953125 20-20 0-11.042968-8.953125-20-20-20-11.042968 0-20 8.957032-20 20 0 11.046875 8.957032 20 20 20zm0-24c2.210938 0 4 1.792969 4 4 0 2.210938-1.789062 4-4 4-2.207031 0-4-1.789062-4-4 0-2.207031 1.792969-4 4-4zm0 52c-11.042968 0-20 8.957032-20 20 0 11.046875 8.957032 20 20 20 11.046875 0 20-8.953125 20-20 0-11.042968-8.953125-20-20-20zm0 24c-2.207031 0-4-1.789062-4-4 0-2.207031 1.792969-4 4-4 2.210938 0 4 1.792969 4 4 0 2.210938-1.789062 4-4 4zm-32-16c11.046875 0 20-8.953125 20-20 0-11.042968-8.953125-20-20-20-11.042968 0-20 8.957032-20 20 0 11.046875 8.957032 20 20 20zm0-24c2.210938 0 4 1.792969 4 4 0 2.210938-1.789062 4-4 4-2.207031 0-4-1.789062-4-4 0-2.207031 1.792969-4 4-4zm44 4c0 11.046875 8.957032 20 20 20 11.046875 0 20-8.953125 20-20 0-11.042968-8.953125-20-20-20-11.042968 0-20 8.957032-20 20zm20-4c2.210938 0 4 1.792969 4 4 0 2.210938-1.789062 4-4 4-2.207031 0-4-1.789062-4-4 0-2.207031 1.792969-4 4-4zm-332 28h16v16c0 4.421875 3.582032 8 8 8h32c4.421875 0 8-3.578125 8-8v-16h16c4.421875 0 8-3.578125 8-8v-32c0-4.417968-3.578125-8-8-8h-16v-16c0-4.417968-3.578125-8-8-8h-32c-4.417968 0-8 3.582032-8 8v16h-16c-4.417968 0-8 3.582032-8 8v32c0 4.421875 3.582032 8 8 8zm8-32h16c4.421875 0 8-3.578125 8-8v-16h16v16c0 4.421875 3.582032 8 8 8h16v16h-16c-4.417968 0-8 3.582032-8 8v16h-16v-16c0-4.417968-3.578125-8-8-8h-16zm136-24h-16v-16h16zm32 0h-16v-16h16zm32 0h-16v-16h16zm0 0" fill="url(#a)"/></svg>