<svg height="496pt" viewBox="0 -56 496 496" width="496pt" xmlns="http://www.w3.org/2000/svg" xmlns:xlink="http://www.w3.org/1999/xlink"><linearGradient id="a"><stop offset="0" stop-color="#003f8a"/><stop offset=".518" stop-color="#00d7df"/><stop offset="1" stop-color="#006df0"/></linearGradient><linearGradient id="b" gradientUnits="userSpaceOnUse" x1="35.744" x2="529.688" xlink:href="#a" y1="468.256" y2="-25.688"/><linearGradient id="c" gradientUnits="userSpaceOnUse" x1="19.744" x2="513.688" xlink:href="#a" y1="452.256" y2="-41.688"/><linearGradient id="d" gradientUnits="userSpaceOnUse" x1="91.744" x2="585.688" xlink:href="#a" y1="524.256" y2="30.312"/><linearGradient id="e" gradientUnits="userSpaceOnUse" x1="71.744" x2="565.688" xlink:href="#a" y1="504.256" y2="10.312"/><linearGradient id="f" gradientUnits="userSpaceOnUse" x1="111.744" x2="605.688" xlink:href="#a" y1="544.256" y2="50.312"/><path d="m488 0h-48c-.371094.046875-.738281.121094-1.097656.222656-.265625-.011718-.53125-.011718-.796875 0l-32 8c-.234375.058594-.410157.203125-.625.273438-.523438.167968-1.027344.386718-1.503907.65625-.300781.191406-.585937.402344-.855468.632812-.257813.164063-.503906.347656-.738282.542969l-101.695312 101.671875h-156.6875c-13.253906 0-24 10.746094-24 24v80h-45.703125l-62.058594-38.785156c-2.464843-1.539063-5.574219-1.621094-8.117187-.210938-2.542969 1.410156-4.121094 4.085938-4.121094 6.996094v184c0 2.910156 1.578125 5.585938 4.121094 6.996094 2.542968 1.410156 5.652344 1.328125 8.117187-.210938l62.058594-38.785156h45.703125v40c0 4.417969 3.582031 8 8 8h312c4.417969 0 8-3.582031 8-8v-240c0-13.253906-10.746094-24-24-24h-44.6875l31.144531-31.144531 27.605469 6.90625c.632812.15625 1.285156.238281 1.9375.238281h48c4.417969 0 8-3.582031 8-8v-72c0-4.417969-3.582031-8-8-8zm-56 176h-296v-16h296zm-416 22.398438 48 30v95.167968l-48 30.035156zm64 121.601562v-88h40v88zm352 48h-296v-176h296zm0-232v8h-296v-8c0-4.417969 3.582031-8 8-8h280c4.417969 0 8 3.582031 8 8zm-108.6875-24 76.6875-76.6875v33.375l-43.3125 43.3125zm92.6875-89.753906 16-4v51.507812l-16-4zm64 49.753906h-32v-56h32zm0 0" fill="url(#b)"/><path d="m160 336h48c4.417969 0 8-3.582031 8-8v-80c0-4.417969-3.582031-8-8-8h-48c-4.417969 0-8 3.582031-8 8v80c0 4.417969 3.582031 8 8 8zm8-80h32v64h-32zm0 0" fill="url(#c)"/><path d="m248 336h160c4.417969 0 8-3.582031 8-8v-80c0-4.417969-3.582031-8-8-8h-160c-4.417969 0-8 3.582031-8 8v80c0 4.417969 3.582031 8 8 8zm8-48v-32h144v64h-144zm0 0" fill="url(#d)"/><path d="m288 320c17.671875 0 32-14.328125 32-32s-14.328125-32-32-32-32 14.328125-32 32 14.328125 32 32 32zm0-48c8.835938 0 16 7.164062 16 16s-7.164062 16-16 16-16-7.164062-16-16 7.164062-16 16-16zm0 0" fill="url(#e)"/><path d="m336 288c0 17.671875 14.328125 32 32 32s32-14.328125 32-32-14.328125-32-32-32-32 14.328125-32 32zm32-16c8.835938 0 16 7.164062 16 16s-7.164062 16-16 16-16-7.164062-16-16 7.164062-16 16-16zm0 0" fill="url(#f)"/></svg>