<svg height="480pt" viewBox="0 -56 480 480" width="480pt" xmlns="http://www.w3.org/2000/svg" xmlns:xlink="http://www.w3.org/1999/xlink"><linearGradient id="a" gradientUnits="userSpaceOnUse" x1="69.384" x2="410.616" y1="354.616" y2="13.384"><stop offset="0" stop-color="#41dfd0"/><stop offset="1" stop-color="#ee83ef"/></linearGradient><path d="m160 368h160c13.253906 0 24-10.746094 24-24v-320c0-13.253906-10.746094-24-24-24h-160c-13.253906 0-24 10.746094-24 24v320c0 13.253906 10.746094 24 24 24zm160-16h-160c-4.417969 0-8-3.582031-8-8v-25.472656c2.5625.949218 5.269531 1.445312 8 1.472656h160c2.730469-.027344 5.4375-.523438 8-1.472656v25.472656c0 4.417969-3.582031 8-8 8zm-168-280c0-4.417969 3.582031-8 8-8h160c4.417969 0 8 3.582031 8 8v224c0 4.417969-3.582031 8-8 8h-160c-4.417969 0-8-3.582031-8-8zm8-56h160c4.417969 0 8 3.582031 8 8v25.472656c-2.5625-.949218-5.269531-1.445312-8-1.472656h-160c-2.730469.027344-5.4375.523438-8 1.472656v-25.472656c0-4.417969 3.582031-8 8-8zm262.078125 218.800781-12.15625 10.398438-13.714844-16 12.160157-10.398438zm-20.574219-24-12.144531 10.398438-13.71875-16 12.144531-10.398438zm20.566406-77.601562-43.535156 50.800781 2.402344 2.792969-12.136719 10.398437-6.863281-8c-2.5625-2.992187-2.5625-7.40625 0-10.398437l48-56zm25.929688-69.199219c-17.671875 0-32 14.328125-32 32s14.328125 32 32 32 32-14.328125 32-32-14.328125-32-32-32zm0 48c-8.835938 0-16-7.164062-16-16s7.164062-16 16-16 16 7.164062 16 16-7.164062 16-16 16zm0 120c-17.671875 0-32 14.328125-32 32s14.328125 32 32 32 32-14.328125 32-32-14.328125-32-32-32zm0 48c-8.835938 0-16-7.164062-16-16s7.164062-16 16-16 16 7.164062 16 16-7.164062 16-16 16zm-377.921875-157.199219 13.714844 16-12.160157 10.398438-13.710937-16zm22.136719 50.398438-13.71875-16 12.144531-10.398438 13.71875 16zm25.855468 16-48 56-12.140624-10.398438 43.535156-50.800781-2.402344-2.792969 12.136719-10.398437 6.863281 8c2.558594 2.988281 2.5625 7.398437.007812 10.390625zm-86.070312 50.800781c-17.671875 0-32 14.328125-32 32s14.328125 32 32 32 32-14.328125 32-32-14.328125-32-32-32zm0 48c-8.835938 0-16-7.164062-16-16s7.164062-16 16-16 16 7.164062 16 16-7.164062 16-16 16zm0-216c-17.671875 0-32 14.328125-32 32s14.328125 32 32 32 32-14.328125 32-32-14.328125-32-32-32zm0 48c-8.835938 0-16-7.164062-16-16s7.164062-16 16-16 16 7.164062 16 16-7.164062 16-16 16zm216-80h-32v-16h32zm32 0h-16v-16h16zm-96 152h80c8.835938 0 16-7.164062 16-16v-64c0-8.835938-7.164062-16-16-16h-80c-8.835938 0-16 7.164062-16 16v64c0 8.835938 7.164062 16 16 16zm0-80h80v64h-80zm93.65625 114.34375 18.34375 18.34375v-92.6875h16v112c0 3.234375-1.949219 6.152344-4.9375 7.390625-.96875.40625-2.011719.613281-3.0625.609375-2.121094 0-4.15625-.84375-5.65625-2.34375l-29.65625-29.65625h-52.6875c-13.253906 0-24-10.746094-24-24v-8h16v8c0 4.417969 3.582031 8 8 8h56c2.121094 0 4.15625.84375 5.65625 2.34375zm-77.65625-90.34375h16v16h-16zm32 0h16v16h-16zm0 0" fill="url(#a)"/></svg>