<?xml version="1.0" encoding="iso-8859-1"?>
<!-- Generator: Adobe Illustrator 19.0.0, SVG Export Plug-In . SVG Version: 6.00 Build 0)  -->
<svg version="1.1" id="Capa_1" xmlns="http://www.w3.org/2000/svg" xmlns:xlink="http://www.w3.org/1999/xlink" x="0px" y="0px"
	 viewBox="0 0 496 496" style="enable-background:new 0 0 496 496;" xml:space="preserve">
<linearGradient id="SVGID_1_" gradientUnits="userSpaceOnUse" x1="-53.834" y1="571.1635" x2="8.516" y2="633.5165" gradientTransform="matrix(8 0 0 -8 399.0001 5120.9951)">
	<stop  offset="0" style="stop-color:#AA6100"/>
	<stop  offset="0.093" style="stop-color:#AC6400"/>
	<stop  offset="0.165" style="stop-color:#B26E00"/>
	<stop  offset="0.231" style="stop-color:#BB7E00"/>
	<stop  offset="0.292" style="stop-color:#C99600"/>
	<stop  offset="0.35" style="stop-color:#DBB400"/>
	<stop  offset="0.405" style="stop-color:#F0D800"/>
	<stop  offset="0.439" style="stop-color:#FFF200"/>
	<stop  offset="0.474" style="stop-color:#FFD705"/>
	<stop  offset="0.519" style="stop-color:#FFBB0A"/>
	<stop  offset="0.565" style="stop-color:#FFA80E"/>
	<stop  offset="0.611" style="stop-color:#FF9C10"/>
	<stop  offset="0.658" style="stop-color:#FF9811"/>
	<stop  offset="0.732" style="stop-color:#FF9A12"/>
	<stop  offset="0.758" style="stop-color:#FFA118"/>
	<stop  offset="0.777" style="stop-color:#FFAC21"/>
	<stop  offset="0.793" style="stop-color:#FFBD2E"/>
	<stop  offset="0.806" style="stop-color:#FFD33F"/>
	<stop  offset="0.809" style="stop-color:#FFDA44"/>
	<stop  offset="0.879" style="stop-color:#DDA928"/>
	<stop  offset="0.96" style="stop-color:#B8750B"/>
	<stop  offset="1" style="stop-color:#AA6100"/>
</linearGradient>
<path style="fill:url(#SVGID_1_);" d="M488,107.999h-40v-40c-0.001-4.418-3.584-7.999-8.002-7.998c-0.441,0-0.882,0.037-1.318,0.11
	L248,91.887L57.32,60.111c-4.358-0.729-8.481,2.213-9.21,6.57C48.037,67.117,48,67.558,48,67.999v40.048H8c-4.418,0-8,3.582-8,8
	v311.952c0,4.418,3.582,8,8,8h480c4.418,0,8-3.582,8-8v-312C496,111.581,492.418,107.999,488,107.999z M432,365.223l-176,29.328
	V106.775l176-29.328V365.223z M64,77.447l176,29.328v287.776L64,365.223V77.447z M480,419.999H16V124.047h32v247.952
	c0.001,3.908,2.826,7.243,6.68,7.888l192,32c0.874,0.149,1.766,0.149,2.64,0l192-32c3.854-0.645,6.679-3.98,6.68-7.888v-248h32
	V419.999z"/>
<linearGradient id="SVGID_2_" gradientUnits="userSpaceOnUse" x1="-62.0824" y1="579.4119" x2="0.2676" y2="641.7649" gradientTransform="matrix(8 0 0 -8 399.0001 5120.9951)">
	<stop  offset="0" style="stop-color:#AA6100"/>
	<stop  offset="0.093" style="stop-color:#AC6400"/>
	<stop  offset="0.165" style="stop-color:#B26E00"/>
	<stop  offset="0.231" style="stop-color:#BB7E00"/>
	<stop  offset="0.292" style="stop-color:#C99600"/>
	<stop  offset="0.35" style="stop-color:#DBB400"/>
	<stop  offset="0.405" style="stop-color:#F0D800"/>
	<stop  offset="0.439" style="stop-color:#FFF200"/>
	<stop  offset="0.474" style="stop-color:#FFD705"/>
	<stop  offset="0.519" style="stop-color:#FFBB0A"/>
	<stop  offset="0.565" style="stop-color:#FFA80E"/>
	<stop  offset="0.611" style="stop-color:#FF9C10"/>
	<stop  offset="0.658" style="stop-color:#FF9811"/>
	<stop  offset="0.732" style="stop-color:#FF9A12"/>
	<stop  offset="0.758" style="stop-color:#FFA118"/>
	<stop  offset="0.777" style="stop-color:#FFAC21"/>
	<stop  offset="0.793" style="stop-color:#FFBD2E"/>
	<stop  offset="0.806" style="stop-color:#FFD33F"/>
	<stop  offset="0.809" style="stop-color:#FFDA44"/>
	<stop  offset="0.879" style="stop-color:#DDA928"/>
	<stop  offset="0.96" style="stop-color:#B8750B"/>
	<stop  offset="1" style="stop-color:#AA6100"/>
</linearGradient>
<path style="fill:url(#SVGID_2_);" d="M217.944,244.239l-128-32c-4.293-1.043-8.619,1.592-9.663,5.885
	c-1.033,4.25,1.539,8.542,5.775,9.635l128,32c0.635,0.161,1.288,0.242,1.944,0.24c4.418-0.005,7.996-3.591,7.991-8.009
	c-0.004-3.666-2.499-6.86-6.055-7.751H217.944z"/>
<linearGradient id="SVGID_3_" gradientUnits="userSpaceOnUse" x1="-64.0867" y1="581.4161" x2="-1.7367" y2="643.7692" gradientTransform="matrix(8 0 0 -8 399.0001 5120.9951)">
	<stop  offset="0" style="stop-color:#AA6100"/>
	<stop  offset="0.093" style="stop-color:#AC6400"/>
	<stop  offset="0.165" style="stop-color:#B26E00"/>
	<stop  offset="0.231" style="stop-color:#BB7E00"/>
	<stop  offset="0.292" style="stop-color:#C99600"/>
	<stop  offset="0.35" style="stop-color:#DBB400"/>
	<stop  offset="0.405" style="stop-color:#F0D800"/>
	<stop  offset="0.439" style="stop-color:#FFF200"/>
	<stop  offset="0.474" style="stop-color:#FFD705"/>
	<stop  offset="0.519" style="stop-color:#FFBB0A"/>
	<stop  offset="0.565" style="stop-color:#FFA80E"/>
	<stop  offset="0.611" style="stop-color:#FF9C10"/>
	<stop  offset="0.658" style="stop-color:#FF9811"/>
	<stop  offset="0.732" style="stop-color:#FF9A12"/>
	<stop  offset="0.758" style="stop-color:#FFA118"/>
	<stop  offset="0.777" style="stop-color:#FFAC21"/>
	<stop  offset="0.793" style="stop-color:#FFBD2E"/>
	<stop  offset="0.806" style="stop-color:#FFD33F"/>
	<stop  offset="0.809" style="stop-color:#FFDA44"/>
	<stop  offset="0.879" style="stop-color:#DDA928"/>
	<stop  offset="0.96" style="stop-color:#B8750B"/>
	<stop  offset="1" style="stop-color:#AA6100"/>
</linearGradient>
<path style="fill:url(#SVGID_3_);" d="M217.944,212.239l-128-32c-4.278-1.104-8.641,1.469-9.745,5.747
	c-1.104,4.278,1.469,8.641,5.747,9.745c0.037,0.009,0.073,0.019,0.11,0.028l128,32c0.635,0.161,1.288,0.242,1.944,0.24
	c4.418-0.005,7.996-3.591,7.991-8.009c-0.004-3.666-2.499-6.86-6.055-7.751L217.944,212.239z"/>
<linearGradient id="SVGID_4_" gradientUnits="userSpaceOnUse" x1="-60.0825" y1="577.4119" x2="2.2675" y2="639.7649" gradientTransform="matrix(8 0 0 -8 399.0001 5120.9951)">
	<stop  offset="0" style="stop-color:#AA6100"/>
	<stop  offset="0.093" style="stop-color:#AC6400"/>
	<stop  offset="0.165" style="stop-color:#B26E00"/>
	<stop  offset="0.231" style="stop-color:#BB7E00"/>
	<stop  offset="0.292" style="stop-color:#C99600"/>
	<stop  offset="0.35" style="stop-color:#DBB400"/>
	<stop  offset="0.405" style="stop-color:#F0D800"/>
	<stop  offset="0.439" style="stop-color:#FFF200"/>
	<stop  offset="0.474" style="stop-color:#FFD705"/>
	<stop  offset="0.519" style="stop-color:#FFBB0A"/>
	<stop  offset="0.565" style="stop-color:#FFA80E"/>
	<stop  offset="0.611" style="stop-color:#FF9C10"/>
	<stop  offset="0.658" style="stop-color:#FF9811"/>
	<stop  offset="0.732" style="stop-color:#FF9A12"/>
	<stop  offset="0.758" style="stop-color:#FFA118"/>
	<stop  offset="0.777" style="stop-color:#FFAC21"/>
	<stop  offset="0.793" style="stop-color:#FFBD2E"/>
	<stop  offset="0.806" style="stop-color:#FFD33F"/>
	<stop  offset="0.809" style="stop-color:#FFDA44"/>
	<stop  offset="0.879" style="stop-color:#DDA928"/>
	<stop  offset="0.96" style="stop-color:#B8750B"/>
	<stop  offset="1" style="stop-color:#AA6100"/>
</linearGradient>
<path style="fill:url(#SVGID_4_);" d="M217.944,276.239l-128-32c-4.293-1.043-8.619,1.592-9.663,5.885
	c-1.033,4.25,1.539,8.542,5.775,9.635l128,32c0.635,0.161,1.288,0.242,1.944,0.24c4.418-0.005,7.996-3.59,7.991-8.009
	c-0.004-3.666-2.499-6.86-6.055-7.751H217.944z"/>
<linearGradient id="SVGID_5_" gradientUnits="userSpaceOnUse" x1="-50.0847" y1="567.4142" x2="12.2653" y2="629.7672" gradientTransform="matrix(8 0 0 -8 399.0001 5120.9951)">
	<stop  offset="0" style="stop-color:#AA6100"/>
	<stop  offset="0.093" style="stop-color:#AC6400"/>
	<stop  offset="0.165" style="stop-color:#B26E00"/>
	<stop  offset="0.231" style="stop-color:#BB7E00"/>
	<stop  offset="0.292" style="stop-color:#C99600"/>
	<stop  offset="0.35" style="stop-color:#DBB400"/>
	<stop  offset="0.405" style="stop-color:#F0D800"/>
	<stop  offset="0.439" style="stop-color:#FFF200"/>
	<stop  offset="0.474" style="stop-color:#FFD705"/>
	<stop  offset="0.519" style="stop-color:#FFBB0A"/>
	<stop  offset="0.565" style="stop-color:#FFA80E"/>
	<stop  offset="0.611" style="stop-color:#FF9C10"/>
	<stop  offset="0.658" style="stop-color:#FF9811"/>
	<stop  offset="0.732" style="stop-color:#FF9A12"/>
	<stop  offset="0.758" style="stop-color:#FFA118"/>
	<stop  offset="0.777" style="stop-color:#FFAC21"/>
	<stop  offset="0.793" style="stop-color:#FFBD2E"/>
	<stop  offset="0.806" style="stop-color:#FFD33F"/>
	<stop  offset="0.809" style="stop-color:#FFDA44"/>
	<stop  offset="0.879" style="stop-color:#DDA928"/>
	<stop  offset="0.96" style="stop-color:#B8750B"/>
	<stop  offset="1" style="stop-color:#AA6100"/>
</linearGradient>
<path style="fill:url(#SVGID_5_);" d="M280,259.999c0.658,0.003,1.314-0.078,1.952-0.24l128-32c4.278-1.104,6.851-5.467,5.747-9.745
	c-1.093-4.235-5.385-6.807-9.635-5.775l-128,32c-4.286,1.074-6.889,5.419-5.815,9.705C273.14,257.5,276.334,259.995,280,259.999
	L280,259.999z"/>
<linearGradient id="SVGID_6_" gradientUnits="userSpaceOnUse" x1="-52.0847" y1="569.4141" x2="10.2653" y2="631.7672" gradientTransform="matrix(8 0 0 -8 399.0001 5120.9951)">
	<stop  offset="0" style="stop-color:#AA6100"/>
	<stop  offset="0.093" style="stop-color:#AC6400"/>
	<stop  offset="0.165" style="stop-color:#B26E00"/>
	<stop  offset="0.231" style="stop-color:#BB7E00"/>
	<stop  offset="0.292" style="stop-color:#C99600"/>
	<stop  offset="0.35" style="stop-color:#DBB400"/>
	<stop  offset="0.405" style="stop-color:#F0D800"/>
	<stop  offset="0.439" style="stop-color:#FFF200"/>
	<stop  offset="0.474" style="stop-color:#FFD705"/>
	<stop  offset="0.519" style="stop-color:#FFBB0A"/>
	<stop  offset="0.565" style="stop-color:#FFA80E"/>
	<stop  offset="0.611" style="stop-color:#FF9C10"/>
	<stop  offset="0.658" style="stop-color:#FF9811"/>
	<stop  offset="0.732" style="stop-color:#FF9A12"/>
	<stop  offset="0.758" style="stop-color:#FFA118"/>
	<stop  offset="0.777" style="stop-color:#FFAC21"/>
	<stop  offset="0.793" style="stop-color:#FFBD2E"/>
	<stop  offset="0.806" style="stop-color:#FFD33F"/>
	<stop  offset="0.809" style="stop-color:#FFDA44"/>
	<stop  offset="0.879" style="stop-color:#DDA928"/>
	<stop  offset="0.96" style="stop-color:#B8750B"/>
	<stop  offset="1" style="stop-color:#AA6100"/>
</linearGradient>
<path style="fill:url(#SVGID_6_);" d="M280,227.999c0.658,0.003,1.314-0.078,1.952-0.24l128-32c4.278-1.104,6.851-5.467,5.747-9.745
	c-1.093-4.235-5.385-6.807-9.635-5.775l-128,32c-4.286,1.074-6.889,5.419-5.815,9.705C273.14,225.5,276.334,227.995,280,227.999
	L280,227.999z"/>
<linearGradient id="SVGID_7_" gradientUnits="userSpaceOnUse" x1="-48.0848" y1="565.4142" x2="14.2652" y2="627.7672" gradientTransform="matrix(8 0 0 -8 399.0001 5120.9951)">
	<stop  offset="0" style="stop-color:#AA6100"/>
	<stop  offset="0.093" style="stop-color:#AC6400"/>
	<stop  offset="0.165" style="stop-color:#B26E00"/>
	<stop  offset="0.231" style="stop-color:#BB7E00"/>
	<stop  offset="0.292" style="stop-color:#C99600"/>
	<stop  offset="0.35" style="stop-color:#DBB400"/>
	<stop  offset="0.405" style="stop-color:#F0D800"/>
	<stop  offset="0.439" style="stop-color:#FFF200"/>
	<stop  offset="0.474" style="stop-color:#FFD705"/>
	<stop  offset="0.519" style="stop-color:#FFBB0A"/>
	<stop  offset="0.565" style="stop-color:#FFA80E"/>
	<stop  offset="0.611" style="stop-color:#FF9C10"/>
	<stop  offset="0.658" style="stop-color:#FF9811"/>
	<stop  offset="0.732" style="stop-color:#FF9A12"/>
	<stop  offset="0.758" style="stop-color:#FFA118"/>
	<stop  offset="0.777" style="stop-color:#FFAC21"/>
	<stop  offset="0.793" style="stop-color:#FFBD2E"/>
	<stop  offset="0.806" style="stop-color:#FFD33F"/>
	<stop  offset="0.809" style="stop-color:#FFDA44"/>
	<stop  offset="0.879" style="stop-color:#DDA928"/>
	<stop  offset="0.96" style="stop-color:#B8750B"/>
	<stop  offset="1" style="stop-color:#AA6100"/>
</linearGradient>
<path style="fill:url(#SVGID_7_);" d="M280,291.999c0.658,0.003,1.314-0.078,1.952-0.24l128-32c4.278-1.104,6.851-5.467,5.747-9.745
	c-1.093-4.235-5.385-6.807-9.635-5.775l-128,32c-4.286,1.074-6.889,5.419-5.815,9.705C273.14,289.5,276.334,291.995,280,291.999z"/>
<g>
</g>
<g>
</g>
<g>
</g>
<g>
</g>
<g>
</g>
<g>
</g>
<g>
</g>
<g>
</g>
<g>
</g>
<g>
</g>
<g>
</g>
<g>
</g>
<g>
</g>
<g>
</g>
<g>
</g>
</svg>
