<svg fill="#fff" height="474pt" viewBox="0 -30 474.74098 474" width="474pt" xmlns="http://www.w3.org/2000/svg"><path d="m33.511719 46.867188 11.3125-11.3125 16.972656 16.96875-11.316406 11.316406zm0 0"/><path d="m0 135.035156h20.992188v16h-20.992188zm0 0"/><path d="m33.507812 239.207031 16.976563-16.976562 11.3125 11.3125-16.976563 16.976562zm0 0"/><path d="m132.992188 263.035156h16v24h-16zm0 0"/><path d="m220.1875 52.527344 16.972656-16.96875 11.3125 11.3125-16.96875 16.972656zm0 0"/><path d="m132.992188.371094h16v22.664062h-16zm0 0"/><path d="m423.113281 320.714844h.71875c2.253907.007812 4.40625-.933594 5.929688-2.59375 1.523437-1.664063 2.277343-3.890625 2.070312-6.132813l-1.3125-14.402343c-3.007812-32.746094-17.371093-63.410157-40.609375-86.679688-9.941406-9.882812-23.734375-14.882812-37.703125-13.671875-.347656-1.238281-.996093-2.367187-1.886719-3.296875l-50.914062-50.910156c-14.898438-14.820313-38.738281-15.550782-54.519531-1.671875-.90625-57.199219-47.855469-102.914063-105.058594-102.300781-57.203125.617187-103.15625 47.335937-102.828125 104.542968.324219 57.203125 46.8125 103.394532 104.015625 103.355469 10.582031-.011719 21.101563-1.628906 31.199219-4.796875l19.640625 19.710938c.351562.277343.722656.523437 1.113281.734374.136719.105469.207031.265626.351562.351563l29.832032 18.648437-2.464844 22.039063c-2.003906 18.441406 7.644531 36.1875 24.207031 44.53125h.203125c.753906.375 1.5625.621094 2.398438.734375l31.582031 3.929688c.992187.117187 1.988281.175781 2.984375.175781 6.980469-.003907 13.675781-2.757813 18.632812-7.664063 4.640626-4.660156 7.332032-10.914062 7.527344-17.488281l16.632813 5.542969c2.855469.949218 5.839843 1.429687 8.847656 1.433594 7.464844-.011719 14.609375-3.035157 19.8125-8.386719 5.203125-5.351563 8.027344-12.578125 7.828125-20.039063 14.902344 7.058594 30.925781 11.441406 47.34375 12.953125zm-44.539062-98.488282c20.601562 20.613282 33.335937 47.78125 36 76.800782l.449219 4.855468-4.855469-.441406c-29.015625-2.667968-56.1875-15.402344-76.800781-36-12.46875-12.492187-12.46875-32.722656 0-45.214844l.074218-.078124c12.5-12.449219 32.714844-12.449219 45.214844 0zm-91.664063 80.359376-76.574218-47.863282 17.496093-17.472656c1.363281 3.910156 3.582031 7.460938 6.496094 10.402344l14.144531 14.140625 11.3125 11.378906c9.371094 9.375 24.570313 9.375 33.941406 0l11.3125-11.3125 11.3125 11.3125-16.390624 16.398437zm23.785156-125.597657-33.894531 33.925781-2.832031-2.824218-8.527344-8.519532 33.941406-33.945312zm-65.175781 42.582031.304688-.296874c4.679687-4.582032 12.179687-4.535157 16.800781.105468l8.503906 8.503906-16.96875 16.976563-8.519531-8.488281c-4.609375-4.632813-4.660156-12.101563-.121094-16.800782zm36.878907 19.632813 11.320312 11.320313-11.320312 11.3125c-3.160157 3.027343-8.148438 3.027343-11.308594 0l-5.664063-5.65625zm39.640624-28.320313h-.039062v.046876l-22.59375 22.585937-11.308594-11.320313 33.933594-33.9375 11.296875 11.3125zm-67.917968-56.535156c9.371094-9.375 24.570312-9.375 33.941406 0l-33.933594 33.941406v-.046874c-9.34375-9.367188-9.34375-24.527344 0-33.894532zm-175.359375 50.910156c-32.164063-32.140624-34.542969-83.492187-5.488281-118.472656 29.050781-34.976562 79.96875-42.0625 117.46875-16.34375 37.496093 25.71875 49.226562 75.773438 27.058593 115.472656l-27.480469-27.480468 20.078126-40.101563c1.539062-3.082031.933593-6.800781-1.503907-9.234375l-17-16.96875c-3.121093-3.121094-8.1875-3.121094-11.308593 0l-14.625 14.640625h-19.3125c-4.417969 0-8 3.582031-8 8v25.921875h-25.945313c-4.417969 0-8 3.582032-8 8v19.320313l-14.625 14.621093c-3.121094 3.125-3.121094 8.191407 0 11.3125l16.96875 16.96875c2.433594 2.4375 6.152344 3.042969 9.234375 1.503907l40.101562-20.046875 27.488282 27.480468c-34.351563 19.207032-77.285156 13.246094-105.101563-14.59375zm124.445312 0c-1.894531 1.90625-3.886719 3.679688-5.925781 5.382813l-33.671875-33.664063c-2.4375-2.429687-6.15625-3.035156-9.234375-1.492187l-40.09375 20.085937-7.203125-7.238281 11.320313-11.355469c1.503906-1.496093 2.34375-3.53125 2.34375-5.652343v-14.632813h25.945312c4.417969 0 8-3.582031 8-8v-25.921875h14.625c2.121094 0 4.15625-.84375 5.65625-2.34375l11.3125-11.3125 7.246094 7.203125-20.054688 40.101563c-1.539062 3.078125-.9375 6.796875 1.496094 9.234375l33.671875 33.664062c-1.746094 2.054688-3.519531 4.046875-5.441406 5.941406zm11.3125 11.3125c7.6875-7.691406 14.113281-16.546874 19.039063-26.238281l8.496094 8.4375c.136718.160157.554687.617188.753906.800781l-45.273438 45.273438-9.246094-9.28125c9.691407-4.910156 18.546876-11.320312 26.238282-18.992188zm22.066407 88.847657 1.597656-14.398438 25.015625 15.613281-16.800781 23.496094c-7.152344-6.105468-10.824219-15.359375-9.804688-24.710937zm55.734374 21.511719c.011719 2.679687-1.046874 5.25-2.9375 7.144531-2.21875 2.183593-5.304687 3.253906-8.398437 2.921875l-18.191406-2.226563 14.007812-19.648437 7.046875 4.410156c.167969.101562.367188.144531.542969.238281.371094.21875.761719.40625 1.160156.5625l5.425781 1.804688c.84375 1.460937 1.308594 3.109375 1.34375 4.792969zm49.648438-11.511719c-3.15625 3.152343-7.824219 4.253906-12.058594 2.839843l-27.03125-9.015624 24.785156-24.785157 14.304688 14.3125c4.578125 4.605469 4.578125 12.042969 0 16.648438zm0 0"/><path d="m338.984375 250.527344 11.3125-11.316406 11.3125 11.316406-11.3125 11.3125zm0 0"/><path d="m372.921875 261.832031 11.3125-11.3125 11.316406 11.3125-11.316406 11.3125zm0 0"/><path d="m395.550781 352.335938 11.3125-11.316407 22.632813 22.625-11.3125 11.316407zm0 0"/><path d="m435.144531 346.679688 11.3125-11.3125 22.628907 22.625-11.3125 11.316406zm0 0"/><path d="m440.800781 307.078125 11.316407-11.3125 22.625 22.632813-11.316407 11.3125zm0 0"/><path d="m423.839844 391.941406 11.316406-11.3125 22.625 22.625-11.3125 11.3125zm0 0"/></svg>