<svg fill="#fff" height="480pt" viewBox="0 -84 480 480" width="480pt" xmlns="http://www.w3.org/2000/svg"><path d="m472 144h-69.601562l-117.957032-78.65625c-1.316406-.875-2.863281-1.339844-4.441406-1.34375h-66.9375l-80.152344-62.3125c-1.402344-1.09375-3.128906-1.6875-4.910156-1.6875h-120c-4.417969 0-8 3.582031-8 8v112c0 4.417969 3.582031 8 8 8h35.886719l14.96875 20.878906c-1.847657 3.417969-2.828125 7.238282-2.855469 11.121094v8c.046875 10.8125 7.316406 20.261719 17.761719 23.070312-1.15625 2.835938-1.753907 5.867188-1.761719 8.929688v8c.046875 10.8125 7.316406 20.261719 17.761719 23.070312-1.15625 2.835938-1.753907 5.867188-1.761719 8.929688v8c.046875 10.8125 7.316406 20.261719 17.761719 23.070312-1.15625 2.835938-1.753907 5.867188-1.761719 8.929688v8c0 13.253906 10.746094 24 24 24h20c11.371094-.015625 21.605469-6.90625 25.894531-17.441406 3.449219.957031 7.007813 1.441406 10.585938 1.441406h143.519531c14.828125-.054688 27.878906-9.796875 32.144531-24h111.855469c4.417969 0 8-3.582031 8-8v-112c0-4.417969-3.582031-8-8-8zm-400 16c0-4.417969 3.582031-8 8-8h20c6.628906 0 12 5.371094 12 12s-5.371094 12-12 12h-20c-4.417969 0-8-3.582031-8-8zm16 40c0-4.417969 3.582031-8 8-8h20c6.628906 0 12 5.371094 12 12s-5.371094 12-12 12h-20c-4.417969 0-8-3.582031-8-8zm16 40c0-4.417969 3.582031-8 8-8h20c6.628906 0 12 5.371094 12 12s-5.371094 12-12 12h-20c-4.417969 0-8-3.582031-8-8zm44 56h-20c-4.417969 0-8-3.582031-8-8v-8c0-4.417969 3.582031-8 8-8h20c6.628906 0 12 5.371094 12 12s-5.371094 12-12 12zm180-16h-11.71875l-29.601562-44.441406-13.3125 8.882812 23.6875 35.558594h-28.796876l-29.601562-44.441406-13.3125 8.882812 23.710938 35.558594h-28.796876l-29.601562-44.441406-13.3125 8.882812 23.710938 35.558594h-16.574219c-3.175781-.058594-6.304688-.769531-9.191407-2.089844-2.210937-9.691406-9.394531-17.484375-18.875-20.476562 4.132813-7.292969 4.726563-16.066406 1.617188-23.847656-3.113281-7.78125-9.59375-13.722657-17.617188-16.152344 4.132813-7.292969 4.726563-16.066406 1.617188-23.847656-3.113281-7.78125-9.59375-13.722657-17.617188-16.152344 2.320313-4.101563 3.550782-8.722656 3.585938-13.433594 0-15.464844-12.535156-28-28-28h-20c-3.207031-.003906-6.382812.636719-9.335938 1.886719l-16.167968-22.550781c-1.503906-2.09375-3.921875-3.335938-6.496094-3.335938h-32v-96h109.257812l62.300782 48.433594c-15.804688 2.117187-27.589844 15.621094-27.558594 31.566406 0 17.671875 14.328125 32 32 32h75.289062l77.511719 139.535156c-2.28125 7.375-9.082031 12.421875-16.800781 12.464844zm136-24h-107.296875l-22.222656-40h41.519531v-16h-50.398438l-46.640624-83.945312c-1.421876-2.503907-4.078126-4.054688-6.960938-4.054688h-80c-8.835938 0-16-7.164062-16-16s7.164062-16 16-16h85.601562l117.984376 78.65625c1.308593.871094 2.84375 1.335938 4.414062 1.34375h64zm0 0"/></svg>