<svg fill="#fff" height="496pt" viewBox="0 -120 496 496" width="496pt" xmlns="http://www.w3.org/2000/svg"><path d="m488 24h-160v-16c0-4.417969-3.582031-8-8-8h-144c-4.417969 0-8 3.582031-8 8v16h-160c-4.417969 0-8 3.582031-8 8v96c0 4.417969 3.582031 8 8 8h160v16c0 4.417969 3.582031 8 8 8h144c4.417969 0 8-3.582031 8-8v-16h160c4.417969 0 8-3.582031 8-8v-96c0-4.417969-3.582031-8-8-8zm-472 96v-80h152v80zm296 24h-128v-128h128zm168-24h-152v-80h152zm0 0"/><path d="m218.527344 24.414062c-4.1875-1.390624-8.710938.871094-10.113282 5.058594l-16 48c-.558593 1.636719-.558593 3.417969 0 5.054688l16 48c1.398438 4.199218 5.933594 6.46875 10.128907 5.074218 4.199219-1.398437 6.46875-5.933593 5.074219-10.128906l-15.183594-45.472656 15.152344-45.472656c1.390624-4.1875-.871094-8.710938-5.058594-10.113282zm0 0"/><path d="m287.585938 29.472656c-1.398438-4.199218-5.933594-6.46875-10.128907-5.074218-4.199219 1.398437-6.46875 5.933593-5.074219 10.128906l15.183594 45.472656-15.152344 45.472656c-1.394531 4.195313.875 8.730469 5.074219 10.128906 4.195313 1.394532 8.730469-.875 10.128907-5.074218l16-48c.558593-1.636719.558593-3.417969 0-5.054688zm0 0"/><path d="m384 112h48c4.417969 0 8-3.582031 8-8s-3.582031-8-8-8h-48c-4.417969 0-8 3.582031-8 8s3.582031 8 8 8zm0 0"/><path d="m456 112h8c4.417969 0 8-3.582031 8-8s-3.582031-8-8-8h-8c-4.417969 0-8 3.582031-8 8s3.582031 8 8 8zm0 0"/><path d="m248 208c-13.253906 0-24 10.746094-24 24s10.746094 24 24 24 24-10.746094 24-24-10.746094-24-24-24zm0 32c-4.417969 0-8-3.582031-8-8s3.582031-8 8-8 8 3.582031 8 8-3.582031 8-8 8zm0 0"/><path d="m168 208c-13.253906 0-24 10.746094-24 24s10.746094 24 24 24 24-10.746094 24-24-10.746094-24-24-24zm0 32c-4.417969 0-8-3.582031-8-8s3.582031-8 8-8 8 3.582031 8 8-3.582031 8-8 8zm0 0"/><path d="m328 208c-13.253906 0-24 10.746094-24 24s10.746094 24 24 24 24-10.746094 24-24-10.746094-24-24-24zm0 32c-4.417969 0-8-3.582031-8-8s3.582031-8 8-8 8 3.582031 8 8-3.582031 8-8 8zm0 0"/></svg>