<svg height="480pt" viewBox="0 0 480 480" width="480pt" xmlns="http://www.w3.org/2000/svg" xmlns:xlink="http://www.w3.org/1999/xlink"><linearGradient id="a" gradientUnits="userSpaceOnUse" x1="66.568" x2="413.432" y1="425.184" y2="78.32"><stop offset="0" stop-color="#41dfd0"/><stop offset="1" stop-color="#ee83ef"/></linearGradient><path d="m336 152v-96c0-13.253906-10.746094-24-24-24h-144c-13.253906 0-24 10.746094-24 24v96c0 13.253906 10.746094 24 24 24h144c13.253906 0 24-10.746094 24-24zm-176 0v-96c0-4.417969 3.582031-8 8-8h144c4.417969 0 8 3.582031 8 8v96c0 4.417969-3.582031 8-8 8h-144c-4.417969 0-8-3.582031-8-8zm40-72c-13.253906 0-24 10.746094-24 24s10.746094 24 24 24 24-10.746094 24-24-10.746094-24-24-24zm0 32c-4.417969 0-8-3.582031-8-8s3.582031-8 8-8 8 3.582031 8 8-3.582031 8-8 8zm80-32c-13.253906 0-24 10.746094-24 24s10.746094 24 24 24 24-10.746094 24-24-10.746094-24-24-24zm0 32c-4.417969 0-8-3.582031-8-8s3.582031-8 8-8 8 3.582031 8 8-3.582031 8-8 8zm184 72c0 17.671875-14.328125 32-32 32s-32-14.328125-32-32v-16h-16v16c.042969 23.398438 16.933594 43.359375 40 47.28125v32.71875h-48.71875c-3.921875-23.066406-23.882812-39.957031-47.28125-40h-56v-16h40c30.914062-.035156 55.964844-25.085938 56-56v-8.800781c18.613281-3.828125 31.976562-20.199219 32-39.199219v-16c-.023438-19.191406-13.667969-35.660156-32.519531-39.246094-3.660157-27.859375-27.382813-48.7031248-55.480469-48.753906h-144c-28.097656.0507812-51.820312 20.894531-55.480469 48.753906-18.851562 3.585938-32.496093 20.054688-32.519531 39.246094v16c.023438 19 13.386719 35.371094 32 39.199219v8.800781c.035156 30.914062 25.085938 55.964844 56 56h40v16h-56c-23.398438.042969-43.359375 16.933594-47.28125 40h-48.71875v-32.71875c23.066406-3.921875 39.957031-23.882812 40-47.28125v-16h-16v16c0 17.671875-14.328125 32-32 32s-32-14.328125-32-32v-16h-16v16c.0429688 23.398438 16.933594 43.359375 40 47.28125v32.71875c0 8.835938 7.164062 16 16 16h48.71875c3.4375 20.101562 19.179688 35.84375 39.28125 39.28125v32.71875c-.015625 3.046875 1.699219 5.839844 4.425781 7.199219l13.03125 6.511719 6.949219 20.855468c1.105469 3.253906 4.160156 5.441406 7.59375 5.433594h32v17.761719l-51.160156 12.796875c-2.996094-4.097656-7.761719-6.535156-12.839844-6.558594h-16c-8.835938 0-16 7.164062-16 16v32c0 8.835938 7.164062 16 16 16h16c8.835938 0 16-7.164062 16-16h160c0 8.835938 7.164062 16 16 16h16c8.835938 0 16-7.164062 16-16v-32c0-8.835938-7.164062-16-16-16h-16c-5.0625.035156-9.808594 2.460938-12.800781 6.542969l-51.199219-12.78125v-17.761719h32c3.445312 0 6.503906-2.203125 7.59375-5.472656l6.949219-20.855469 13.03125-6.511719c2.714843-1.355468 4.425781-4.128906 4.425781-7.160156v-32.71875c20.101562-3.4375 35.84375-19.179688 39.28125-39.28125h48.71875c8.835938 0 16-7.164062 16-16v-32.71875c23.066406-3.921875 39.957031-23.882812 40-47.28125v-16h-16zm-80-96v16c-.011719 10.167969-6.417969 19.230469-16 22.632812v-61.265624c9.582031 3.402343 15.988281 12.464843 16 22.632812zm-288 16v-16c.011719-10.167969 6.417969-19.230469 16-22.632812v61.265624c-9.582031-3.402343-15.988281-12.464843-16-22.632812zm32 48v-96c.027344-22.082031 17.917969-39.972656 40-40h144c22.082031.027344 39.972656 17.917969 40 40v96c-.027344 22.082031-17.917969 39.972656-40 40h-144c-22.082031-.027344-39.972656-17.917969-40-40zm96 56h32v16h-32zm-104 64c.015625-14.585938 9.882812-27.320312 24-30.984375v61.96875c-14.117188-3.664063-23.984375-16.398437-24-30.984375zm8 192v-32h16v32zm224-32v32h-16v-32zm-32 16h-160v-9.753906l56.984375-14.246094h46.03125l56.984375 14.246094zm-64-40h-32v-16h32zm52.425781-55.199219c-1.894531.957031-3.332031 2.621094-4 4.632813l-6.195312 18.566406h-116.460938l-6.175781-18.527344c-.671875-2.011718-2.109375-3.675781-4-4.632812l-11.59375-5.785156v-19.054688h16v-16h-16v-72h160v72h-16v16h16v19.054688zm27.574219-49.816406v-61.96875c14.128906 3.648437 24 16.390625 24 30.984375s-9.871094 27.335938-24 30.984375zm-297-166.984375h16v16h-16zm385 0h16v16h-16zm-144 152h-80c-4.417969 0-8 3.582031-8 8v56c0 4.417969 3.582031 8 8 8h80c4.417969 0 8-3.582031 8-8v-56c0-4.417969-3.582031-8-8-8zm-8 56h-64v-40h64zm-56-72h-16v-16h16zm32 0h-16v-16h16zm32 0h-16v-16h16zm0 0" fill="url(#a)"/></svg>