<?xml version="1.0" encoding="iso-8859-1"?>
<!-- Generator: Adobe Illustrator 19.0.0, SVG Export Plug-In . SVG Version: 6.00 Build 0)  -->
<svg version="1.1" id="Capa_1" xmlns="http://www.w3.org/2000/svg" xmlns:xlink="http://www.w3.org/1999/xlink" x="0px" y="0px"
	 viewBox="0 0 467.2 467.2" style="enable-background:new 0 0 467.2 467.2;" xml:space="preserve">
<g>
	<g>
		<g>
			<path d="M382.4,148c-10,0-19.2,4-26,10.8c-6.8,6.8-10.8,16-10.8,26s4,19.2,10.8,26c6.8,6.4,16,10.8,26,10.8s19.2-4,26-10.8
				c6.8-6.8,10.8-16,10.8-26s-4-19.2-10.8-26C401.6,152,392.4,148,382.4,148z M400.8,203.2c-4.8,4.8-11.2,7.6-18.4,7.6
				s-13.6-2.8-18.4-7.6s-7.6-11.2-7.6-18.4c0-7.2,2.8-14,7.6-18.4c4.8-4.8,11.2-7.6,18.4-7.6c7.2,0,13.6,2.8,18.4,7.6
				s7.6,11.2,7.6,18.4C408.4,192,405.6,198.4,400.8,203.2z"/>
			<path d="M163.2,148c-10,0-19.2,4-26,10.8c-6.8,6.8-10.8,16-10.8,26s4,19.2,10.8,26c6.4,6.4,15.6,10.8,26,10.8
				c10,0,19.2-4,26-10.8c6.8-6.8,10.8-16,10.8-26s-4-19.2-10.8-26C182.4,152,173.2,148,163.2,148z M181.6,203.2
				c-4.8,4.8-11.2,7.6-18.4,7.6c-7.2,0-13.6-2.8-18.4-7.6s-7.6-11.2-7.6-18.4c0-7.2,2.8-14,7.6-18.4c4.8-4.8,11.2-7.6,18.4-7.6
				c7.2,0,13.6,2.8,18.4,7.6s7.6,11.2,7.6,18.4C189.2,192,186.4,198.4,181.6,203.2z"/>
			<path d="M272.8,148c-10,0-19.2,4-26,10.8c-6.8,6.8-10.8,16-10.8,26s4,19.2,10.8,26c6.4,6.4,15.6,10.8,26,10.8
				c10,0,19.2-4,26-10.8c6.8-6.8,10.8-16,10.8-26s-4-19.2-10.8-26C292,152,282.8,148,272.8,148z M291.2,203.2
				c-4.8,4.8-11.2,7.6-18.4,7.6c-7.2,0-13.6-2.8-18.4-7.6s-7.6-11.2-7.6-18.4c0-7.2,2.8-14,7.6-18.4c4.8-4.8,11.2-7.6,18.4-7.6
				s13.6,2.8,18.4,7.6s7.6,11.2,7.6,18.4C298.8,192,296,198.4,291.2,203.2z"/>
			<path d="M455.6,54.8c-7.2-7.2-16.8-11.6-27.6-11.6H114.8c-10.8,0-20.8,4.4-27.6,11.6C80,62,75.6,71.6,75.6,82.4v124h-48
				c-7.6,0-14.4,3.2-19.6,8c-5.2,5.2-8,12-8,19.6v128c0,7.6,3.2,14.4,8,19.6c4.8,4.8,11.6,8,19.2,8h14.4v22c0,3.6,1.2,6.4,3.6,8.8
				c2.4,2.4,5.2,3.6,8.8,3.6c1.6,0,3.2-0.4,4.8-0.8c1.6-0.8,2.8-1.6,4-2.8l30.8-30.8h140c7.6,0,14.4-3.2,19.6-8c5.2-5.2,8-12,8-19.6
				v-45.6h67.2L376,364c1.6,1.6,3.2,2.8,5.2,3.6c2,0.8,4,1.2,6,1.2c4.4,0,8.4-1.6,11.2-4.8c2.8-2.8,4.8-6.8,4.8-11.2v-36.4H428
				c10.8,0,20.8-4.4,27.6-11.6c7.2-7.2,11.6-16.8,11.6-27.6V82.4C467.2,71.6,462.8,61.6,455.6,54.8z M250,362c0,4.8-2,8.8-4.8,12
				c-3.2,3.2-7.2,4.8-12,4.8H91.6c-1.2,0-2.8,0.4-3.6,1.6l-32.4,32.4l-0.4,0.4c0,0-0.4,0-0.8,0c-0.4,0-0.8,0-1.2-0.4
				c-0.4-0.4-0.4-0.8-0.4-1.2V384c0-2.8-2.4-5.2-5.2-5.2H28c-4.8,0-8.8-2-12-4.8c-3.2-3.2-4.8-7.2-4.8-12V234h-0.8
				c0-4.8,2-8.8,4.8-12c3.2-3.2,7.2-4.8,12-4.8h48v60c0,10.8,4.4,20.8,11.6,27.6c7.2,7.2,16.8,11.6,27.6,11.6H250V362z M457.2,277.2
				c0,8-3.2,15.2-8.4,20.4c-5.2,5.2-12.4,8.4-20.4,8.4h-30c-2.8,0-5.2,2.4-5.2,5.2v41.6c0,1.6-0.4,2.8-1.6,3.6
				c-0.8,0.8-2.4,1.6-3.6,1.6c-0.8,0-1.6,0-2-0.4c-0.8-0.4-1.2-0.8-1.6-1.2l-50-49.2c-1.2-1.2-2.4-1.6-3.6-1.6H256H114.8
				c-8,0-15.2-3.2-20.4-8.4S86,284.8,86,276.8v-65.2V82.4c0-8,3.2-15.2,8.4-20.4c5.2-5.2,12.4-8.4,20.4-8.4h313.6
				c8,0,15.2,3.2,20.4,8.4c5.2,5.2,8.4,12.4,8.4,20.4V277.2z"/>
		</g>
	</g>
</g>
<g>
</g>
<g>
</g>
<g>
</g>
<g>
</g>
<g>
</g>
<g>
</g>
<g>
</g>
<g>
</g>
<g>
</g>
<g>
</g>
<g>
</g>
<g>
</g>
<g>
</g>
<g>
</g>
<g>
</g>
</svg>
