<svg height="384pt" viewBox="-48 0 384 384" width="384pt" 
    xmlns="http://www.w3.org/2000/svg" 
    xmlns:xlink="http://www.w3.org/1999/xlink">
    <linearGradient id="a" gradientUnits="userSpaceOnUse" x1="-7.576" x2="314.352" y1="352.96" y2="31.04">
        <stop offset="0" stop-color="#003f8a"/>
        <stop offset=".518" stop-color="#00d7df"/>
        <stop offset="1" stop-color="#006df0"/>
    </linearGradient>
    <path d="m40 0c-22.082031.0273438-39.9726562 17.917969-40 40v304c.0273438 22.082031 17.917969 39.972656 40 40h240c4.417969 0 8-3.582031 8-8v-368c0-4.417969-3.582031-8-8-8zm232 240h-48v16h48v48h-224v-288h224zm-240-222.632812v287.433593c-5.820312 1.234375-11.289062 3.761719-16 7.398438v-272.199219c.011719-10.167969 6.417969-19.230469 16-22.632812zm8 350.632812c-13.253906 0-24-10.746094-24-24s10.746094-24 24-24h232v16h-176v16h176v16zm24-32h16v16h-16zm64-176c0 17.671875 14.328125 32 32 32s32-14.328125 32-32-14.328125-32-32-32-32 14.328125-32 32zm32-16c8.835938 0 16 7.164062 16 16s-7.164062 16-16 16-16-7.164062-16-16 7.164062-16 16-16zm-92.929688 39.304688v.101562c0 .082031.058594.152344.074219.234375 2.121094 8.332031 5.351563 16.347656 9.597657 23.824219.234374.40625.472656.800781.714843 1.214844 4.226563 7.21875 9.382813 13.851562 15.34375 19.71875.136719.136718.246094.296874.375.425781.128907.128906.183594.113281.265625.175781 11.292969 10.960938 25.246094 18.792969 40.488282 22.726562l.117187.050782.273437.054687c3.378907.855469 6.808594 1.507813 10.265626 1.960938l.605468.09375c3.53125.441406 7.082032.671875 10.640625.6875h52.167969v-16h-16v-14.109375c2.699219-1.34375 5.308594-2.855469 7.816406-4.527344l20.390625 11.773438c1.839844 1.0625 4.023438 1.351562 6.074219.804687 2.054688-.550781 3.800781-1.890625 4.863281-3.730469l24-41.601562c2.207031-3.828125.890625-8.722656-2.9375-10.925782l-20.375-11.769531c.113281-1.601562.167969-3.054687.167969-4.519531s-.054688-2.953125-.167969-4.519531l20.375-11.769531c3.828125-2.207032 5.144531-7.097657 2.9375-10.925782l-24-41.601562c-1.0625-1.839844-2.808593-3.183594-4.863281-3.730469-2.050781-.550781-4.234375-.261719-6.074219.800781l-20.390625 11.777344c-2.507812-1.652344-5.121094-3.140625-7.816406-4.464844v-15.535156h32v-16h-68.175781c-3.554688.019531-7.105469.25-10.632813.6875l-.703125.113281c-3.4375.449219-6.847656 1.105469-10.207031 1.960938-.082031 0-.167969 0-.25.046875l-.109375.046875c-15.703125 4.042969-30.035156 12.214843-41.507813 23.671875-.078124.082031-.183593.113281-.261718.191406-.082032.082031-.3125.34375-.464844.503906-.800781.800782-1.597656 1.6875-2.359375 2.539063-.96875 1.0625-1.921875 2.132812-2.847656 3.246093-.929688 1.113282-1.738281 2.121094-2.578125 3.199219-.207032.273438-.429688.527344-.636719.800781-.1875.253907-.359375.523438-.511719.800782l-.066406.101562c-4.074219 5.578125-7.539062 11.578125-10.328125 17.898438-.15625.273437-.300781.554687-.421875.847656-.042969.097656-.074219.199219-.113281.296875-.871094 2.046875-1.601563 4.160156-2.398438 6.277344-.179687.511719-.371093 1-.539062 1.511719-.796875 2.402343-1.429688 4.800781-2.023438 7.203124-.046875.191407-.109375.375-.160156.566407v.113281c-3.757813 15.347656-3.640625 31.386719.335937 46.679688zm21.097657-18.785157-7.558594 4.359375c-.386719-3.183594-.589844-6.390625-.609375-9.597656 0-2.800781.144531-5.601562.414062-8.28125l7.753907 4.472656c-.113281 1.597656-.167969 3.054688-.167969 4.519532 0 1.464843.054688 2.960937.167969 4.527343zm39.832031 68.457031c-5.464844-2.261718-10.644531-5.167968-15.425781-8.648437l7.609375-4.390625c2.507812 1.671875 5.117187 3.183594 7.816406 4.527344zm48-152.976562v20.695312c0 3.261719 1.976562 6.195313 5 7.417969 4.804688 1.953125 9.316406 4.566407 13.398438 7.765625 2.570312 2.011719 6.101562 2.261719 8.929687.632813l17.953125-10.398438 16 27.710938-17.960938 10.398437c-2.808593 1.625-4.355468 4.785156-3.921874 8 .800781 5.136719.800781 10.367188 0 15.503906-.433594 3.214844 1.113281 6.375 3.921874 8l17.960938 10.402344-16 27.710938-17.953125-10.398438c-2.828125-1.632812-6.359375-1.382812-8.929687.628906-4.082032 3.199219-8.59375 5.816407-13.398438 7.769532-3.023438 1.222656-5 4.15625-5 7.417968v19.269532h-20.175781c-2.199219 0-4.359375-.152344-6.511719-.34375-1.449219-.136719-2.914062-.335938-4.382812-.566406l-.929688-.105469v-18.207031c0-3.261719-1.976562-6.195313-5-7.417969-4.804688-1.953125-9.316406-4.566407-13.398438-7.765625-2.570312-2.011719-6.101562-2.261719-8.929687-.632813l-16.464844 9.511719-.472656-.542969c-1.453125-1.679687-2.84375-3.421875-4.167969-5.226562-.246094-.34375-.496094-.6875-.734375-1.039063-1.3125-1.855468-2.542969-3.765625-3.6875-5.734375-.167969-.289062-.335937-.570312-.496093-.855469-1.207032-2.136718-2.316407-4.320312-3.328126-6.554687l-.183593-.398437c-1.066407-2.410157-2.023438-4.878907-2.871094-7.402344l16.414063-9.46875c2.808593-1.625 4.355468-4.785156 3.921874-8-.800781-5.136719-.800781-10.367188 0-15.503906.433594-3.214844-1.113281-6.375-3.921874-8l-16.800782-9.707032c.757813-2.4375 1.613282-4.792968 2.570313-7.070312l.0625-.144532 9.816406-16.984374.183594-.261719c.6875-.914063 1.410156-1.785157 2.128906-2.65625.246094-.296875.511719-.578125.757813-.875l17.289062 9.984375c2.828125 1.632812 6.359375 1.382812 8.929688-.628906 4.082031-3.199219 8.59375-5.816407 13.398437-7.769532 3.03125-1.234375 5.007813-4.191406 4.984375-7.464844v-19.632812l1.039062-.167969c1.425782-.222656 2.847657-.414062 4.257813-.550781 2.160156-.191406 4.320313-.34375 6.527344-.34375zm-64.464844 15.0625c5.066406-3.835938 10.597656-7.015625 16.464844-9.460938v9.933594c-2.699219 1.34375-5.308594 2.855469-7.816406 4.527344zm144.464844-15.0625h-16v-16h16zm0 0" fill="url(#a)"/>
</svg>