<svg height="456pt" viewBox="0 -20 456 456" width="456pt" xmlns="http://www.w3.org/2000/svg" xmlns:xlink="http://www.w3.org/1999/xlink"><linearGradient id="a" gradientUnits="userSpaceOnUse" x1="40.984" x2="374.216" y1="424.120317" y2="90.880317"><stop offset="0" stop-color="#41dfd0"/><stop offset="1" stop-color="#ee83ef"/></linearGradient><path d="m0 215.976562v144c.0351562 30.914063 25.085938 55.964844 56 56h224c30.914062-.035156 55.964844-25.085937 56-56v-16h21.398438l85.898437 62.472657c2.433594 1.769531 5.652344 2.023437 8.335937.65625 2.679688-1.367188 4.367188-4.121094 4.367188-7.128907v-224c0-3.007812-1.6875-5.765624-4.367188-7.128906-2.683593-1.367187-5.902343-1.113281-8.335937.65625l-85.898437 62.472656h-21.398438v-16c-.046875-27.304687-19.765625-50.601562-46.6875-55.160156 34.746094-23.578125 47.992188-68.421875 31.636719-107.09375s-57.757813-60.402344-98.878907-51.898437l-134.824218 14.191406c-34.847656.292969-65.488282 23.136719-75.71875 56.449219-10.234375 33.3125 2.296875 69.414062 30.96875 89.222656-24.933594 6.21875-42.449219 28.589844-42.496094 54.289062zm440 168.289063-72-52.359375v-87.859375l72-52.359375zm-88-136.289063v80h-16v-80zm-40-160c.015625 37.792969-29.195312 69.167969-66.898438 71.847657-37.699218 2.675781-71.050781-24.25-76.382812-61.667969-5.328125-37.417969 19.179688-72.585938 56.128906-80.539062l15.417969-1.640626c9.523437.015626 18.945313 1.9375 27.71875 5.648438l-7.480469 14.214844c-25.417968-9.996094-54.339844-.199219-68.445312 23.1875-14.109375 23.386718-9.289063 53.539062 11.40625 71.363281 20.695312 17.820313 51.230468 18.113281 72.265625.691406 21.035156-17.421875 26.429687-47.476562 12.773437-71.128906l-13.847656 8c10.050781 17.375 5.664062 39.507813-10.25 51.742187-15.914062 12.230469-38.433594 10.773438-52.636719-3.410156-14.207031-14.179687-15.699219-36.695312-3.492187-52.628906 12.203125-15.9375 34.332031-20.355469 51.722656-10.335938 1.886719 1.089844 4.132812 1.367188 6.226562.761719 2.089844-.601562 3.847657-2.035156 4.863282-3.960937l10.8125-20.542969c18.863281 13.476563 30.066406 35.21875 30.097656 58.398437zm-150.503906 39.542969c6.558594 12.964844 16.210937 24.109375 28.105468 32.457031h-53.808593c11.253906-8.386718 20.117187-19.578124 25.703125-32.457031zm-3.734375-70.582031c-6.785157-12.03125-16.546875-22.113281-28.355469-29.28125l52.402344-5.511719c-10.722656 9.472657-18.972656 21.414063-24.046875 34.792969zm-133.761719 39.039062c-.078125-27.875 17.847656-52.609374 44.363281-61.214843 26.511719-8.609375 55.546875.882812 71.855469 23.488281s16.164062 53.152344-.363281 75.597656c-16.523438 22.449219-45.652344 31.660156-72.078125 22.800782 2.648437-4 5.191406-7.726563 7.039062-10.359376 24.222656 6.351563 49.53125-5.464843 60.214844-28.113281 10.6875-22.648437 3.710938-49.695312-16.59375-64.351562-20.300781-14.65625-48.167969-12.757813-66.300781 4.515625-18.132813 17.269531-21.375 45.011718-7.722657 66.003906l13.402344-8.734375c-9.632812-14.839844-7.035156-34.484375 6.128906-46.304687 13.164063-11.820313 32.972657-12.304688 46.695313-1.136719s17.273437 30.664062 8.375 45.953125c-8.902344 15.289062-27.609375 21.824218-44.09375 15.40625-6.3125-2.496094-7.753906-1.238282-21.714844 20.097656-18.191406-11.785156-29.183593-31.972656-29.207031-53.648438zm32 80h224c22.082031.027344 39.972656 17.917969 40 40v144c-.027344 22.082032-17.917969 39.972657-40 40h-224c-22.082031-.027343-39.972656-17.917968-40-40v-144c.027344-22.082031 17.917969-39.972656 40-40zm0 208h224c13.253906 0 24-10.746093 24-24v-144c0-13.253906-10.746094-24-24-24h-224c-13.253906 0-24 10.746094-24 24v144c0 13.253907 10.746094 24 24 24zm-8-168c0-4.417968 3.582031-8 8-8h224c4.417969 0 8 3.582032 8 8v144c0 4.417969-3.582031 8-8 8h-224c-4.417969 0-8-3.582031-8-8zm68 134.9375c1.214844.699219 2.597656 1.066407 4 1.0625 1.40625-.007812 2.785156-.382812 4-1.089843l96-56c2.460938-1.429688 3.972656-4.0625 3.972656-6.910157 0-2.847656-1.511718-5.480468-3.972656-6.914062l-96-56c-2.472656-1.425781-5.519531-1.425781-7.992188-.003906-2.476562 1.425781-4.003906 4.0625-4.007812 6.917968v112c-.003906 2.859376 1.523438 5.503907 4 6.9375zm12-105.007812 72.121094 42.070312-72.121094 42.070313zm-48-141.929688v-16c0-4.417968 3.582031-8 8-8s8 3.582032 8 8v16c0 4.417969-3.582031 8-8 8s-8-3.582031-8-8zm176-16c0 4.417969-3.582031 8-8 8h-16c-4.417969 0-8-3.582031-8-8 0-4.417968 3.582031-8 8-8h16c4.417969 0 8 3.582032 8 8zm0 0" fill="url(#a)"/></svg>